<?xml version="1.0" encoding="UTF-8" standalone="no"?>
<!-- Created with Inkscape (http://www.inkscape.org/) -->

<svg
   xmlns:dc="http://purl.org/dc/elements/1.1/"
   xmlns:cc="http://creativecommons.org/ns#"
   xmlns:rdf="http://www.w3.org/1999/02/22-rdf-syntax-ns#"
   xmlns:svg="http://www.w3.org/2000/svg"
   xmlns="http://www.w3.org/2000/svg"
   version="1.1"
   width="48"
   height="48"
   id="svg2">
  <defs
     id="defs4" />
  <metadata
     id="metadata7">
    <rdf:RDF>
      <cc:Work
         rdf:about="">
        <dc:format>image/svg+xml</dc:format>
        <dc:type
           rdf:resource="http://purl.org/dc/dcmitype/StillImage" />
        <dc:title></dc:title>
      </cc:Work>
    </rdf:RDF>
  </metadata>
  <g
     transform="translate(0,-1004.3622)"
     id="layer1">
    <g
       transform="translate(0,1004.3622)"
       id="text2985"
       style="font-size:20px;font-style:normal;font-variant:normal;font-weight:normal;font-stretch:normal;line-height:125%;letter-spacing:0px;word-spacing:0px;fill:#000000;fill-opacity:1;stroke:none;font-family:FontAwesome;-inkscape-font-specification:FontAwesome" />
    <g
       transform="translate(0,1004.3622)"
       id="text2989"
       style="font-size:20px;font-style:normal;font-variant:normal;font-weight:normal;font-stretch:normal;line-height:125%;letter-spacing:0px;word-spacing:0px;fill:#000000;fill-opacity:1;stroke:none;font-family:FontAwesome;-inkscape-font-specification:FontAwesome" />
    <g
       transform="scale(0.99999672,1.0000033)"
       id="text2997"
       style="font-size:55.99953079px;font-style:normal;font-variant:normal;font-weight:normal;font-stretch:normal;line-height:125%;letter-spacing:0px;word-spacing:0px;fill:#000000;fill-opacity:1;stroke:none;font-family:FontAwesome;-inkscape-font-specification:FontAwesome">
      <path
         d="m 2.0000067,1044.265 c 0,-1.1051 0.036458,-2.1834 0.1093741,-3.235 0.072916,-1.0516 0.2187478,-2.1869 0.4374963,-3.406 0.2187474,-1.2191 0.4947458,-2.3493 0.827996,-3.3906 0.3332474,-1.0413 0.781282,-2.057 1.3441049,-3.0471 0.5628176,-0.99 1.2088076,-1.834 1.9379721,-2.5318 0.7291551,-0.6978 1.6195277,-1.255 2.6711202,-1.6714 1.0515777,-0.4164 2.2131067,-0.6246 3.4845897,-0.6246 0.186837,0 0.624048,0.2239 1.311635,0.6716 0.687563,0.4478 1.463719,0.9476 2.328471,1.4996 0.864724,0.552 1.989795,1.0522 3.375216,1.5005 1.385386,0.4483 2.775917,0.6725 4.171596,0.6725 1.395636,0 2.786166,-0.2242 4.171596,-0.6725 1.385378,-0.4483 2.510448,-0.9485 3.375216,-1.5005 0.864708,-0.552 1.640865,-1.0518 2.328472,-1.4996 0.687543,-0.4477 1.124754,-0.6716 1.311634,-0.6716 1.271439,0 2.433253,0.2082 3.485445,0.6246 1.052118,0.4164 1.942775,0.9736 2.671974,1.6714 0.729121,0.6978 1.374826,1.5418 1.937118,2.5318 0.562209,0.9901 1.009959,2.0058 1.34325,3.0471 0.333207,1.0413 0.609205,2.1715 0.827996,3.3906 0.218705,1.2191 0.364537,2.3544 0.437497,3.406 0.07287,1.0516 0.10933,2.1299 0.109374,3.235 -4.4e-5,2.4997 -0.76025,4.4736 -2.280621,5.9216 -1.520454,1.4481 -3.541309,2.1721 -6.062571,2.1721 l -27.31276,0 c -2.5201665,0 -4.5407368,-0.724 -6.0617163,-2.1721 -1.5209841,-1.448 -2.281475,-3.4219 -2.281475,-5.9216 z m 13.5145353,-19.4224 c -2.343579,-2.3435 -3.515362,-5.1716 -3.515352,-8.4842 -10e-6,-3.3125 1.172058,-6.1406 3.516206,-8.4842 2.344122,-2.3435 5.172464,-3.5153 8.485037,-3.5153 3.312528,0 6.140586,1.1718 8.484182,3.5153 2.343534,2.3436 3.515317,5.1717 3.515351,8.4842 -3.4e-5,3.3126 -1.171817,6.1407 -3.515351,8.4842 -2.343596,2.3436 -5.171654,3.5154 -8.484182,3.5154 -3.312573,0 -6.1412,-1.1718 -8.485891,-3.5154 z"
         id="path3008" />
    </g>
    <g
       id="text3001"
       style="font-size:16.79979515px;font-style:normal;font-variant:normal;font-weight:normal;font-stretch:normal;line-height:125%;letter-spacing:0px;word-spacing:0px;fill:#000000;fill-opacity:1;stroke:none;font-family:FontAwesome;-inkscape-font-specification:FontAwesome">
      <path
         d="m 20.168674,1037.3527 c -0.08135,-0.062 -0.129797,-0.1402 -0.145347,-0.234 -0.01555,-0.094 0.0016,-0.1814 0.05153,-0.2628 1.000083,-1.6625 2.450137,-2.4937 4.350166,-2.4937 0.500037,0 1.003156,0.097 1.509357,0.2907 0.506188,0.1938 0.962395,0.4532 1.368624,0.7782 0.406212,0.3251 0.737408,0.7235 0.993591,1.1954 0.256164,0.4718 0.384251,0.9672 0.38426,1.486 -9e-6,0.3374 -0.04837,0.6529 -0.145091,0.9467 -0.09674,0.2938 -0.20611,0.5328 -0.328121,0.7172 -0.122029,0.1844 -0.29395,0.3704 -0.515765,0.5578 -0.221832,0.1875 -0.401444,0.3235 -0.538836,0.4079 -0.137409,0.084 -0.328129,0.1953 -0.572161,0.3327 -0.25601,0.1436 -0.469972,0.3466 -0.641887,0.6091 -0.171928,0.2625 -0.257889,0.472 -0.257882,0.6286 -7e-6,0.1059 -0.03752,0.2073 -0.112536,0.3042 -0.07503,0.097 -0.162443,0.1454 -0.26224,0.1454 l -2.250192,0 c -0.09366,0 -0.173293,-0.058 -0.238913,-0.1733 -0.06563,-0.1155 -0.09844,-0.2328 -0.09844,-0.3517 l 0,-0.422 c -3e-6,-0.5185 0.203107,-1.0074 0.609331,-1.4668 0.406216,-0.4593 0.853024,-0.7984 1.340426,-1.0171 0.368788,-0.1689 0.631285,-0.344 0.78749,-0.5253 0.156193,-0.1813 0.234292,-0.4188 0.234299,-0.7124 -7e-6,-0.2625 -0.145268,-0.4937 -0.435786,-0.6936 -0.290529,-0.2 -0.626511,-0.2999 -1.007946,-0.3 -0.406055,10e-5 -0.743575,0.091 -1.012561,0.2718 -0.218751,0.1562 -0.553024,0.5156 -1.00282,1.0782 -0.08135,0.1 -0.178248,0.1497 -0.290695,0.1497 -0.07485,0 -0.152955,-0.025 -0.234299,-0.075 l -1.537554,-1.172 z m 2.550115,8.6347 0,-2.2502 c -3e-6,-0.1001 0.03751,-0.1876 0.112536,-0.2625 0.07502,-0.075 0.162433,-0.1123 0.26224,-0.1123 l 2.250192,0 c 0.0998,0 0.187211,0.037 0.262241,0.1123 0.07502,0.075 0.112528,0.1624 0.112535,0.2625 l 0,2.2502 c -7e-6,0.1 -0.03752,0.1872 -0.112535,0.2622 -0.07503,0.075 -0.162444,0.1126 -0.262241,0.1126 l -2.250192,0 c -0.09981,0 -0.187221,-0.038 -0.26224,-0.1126 -0.07503,-0.075 -0.112539,-0.1624 -0.112536,-0.2622 z"
         id="path3011"
         style="fill:#ffffff" />
    </g>
  </g>
</svg>
